<svg xmlns="http://www.w3.org/2000/svg" version="1.0" width="346.000000pt" height="346.000000pt" viewBox="0 0 346.000000 346.000000" preserveAspectRatio="xMidYMid meet">

<g transform="translate(0.000000,346.000000) scale(0.100000,-0.100000)" fill="#1D85A2" stroke="none">
<path d="M1605 3454 c-255 -26 -443 -78 -645 -179 -771 -386 -1138 -1271 -870 -2095 43 -130 146 -335 227 -450 95 -134 302 -338 433 -426 184 -125 358 -203 565 -254 341 -84 700 -64 1025 57 463 173 840 550 1013 1013 94 251 129 552 97 820 -32 266 -135 535 -294 770 -88 131 -292 338 -426 433 -195 138 -461 247 -698 288 -112 19 -343 31 -427 23z m-795 -1039 c0 -3 56 -299 125 -657 69 -359 125 -658 125 -665 0 -10 -21 -13 -78 -13 l-78 0 -24 133 -25 132 -166 3 -165 2 -25 -132 -24 -133 -72 -3 c-56 -2 -73 0 -73 10 0 8 56 307 125 666 69 358 125 654 125 657 0 3 52 5 115 5 63 0 115 -2 115 -5z m520 -595 l0 -600 195 0 195 0 0 -70 0 -70 -270 0 -270 0 0 670 0 670 75 0 75 0 0 -600z m1030 530 l0 -70 -195 0 -195 0 0 -240 0 -240 155 0 155 0 0 -70 0 -70 -155 0 -155 0 0 -290 0 -290 -75 0 -75 0 0 670 0 670 270 0 270 0 0 -70z m530 65 c0 -3 56 -299 125 -657 69 -359 125 -658 125 -665 0 -10 -21 -13 -78 -13 l-78 0 -24 133 -25 132 -166 3 -165 2 -25 -132 -24 -133 -72 -3 c-56 -2 -73 0 -73 10 0 8 56 307 125 666 69 358 125 654 125 657 0 3 52 5 115 5 63 0 115 -2 115 -5z"/>
<path d="M617 1862 c-37 -196 -67 -363 -67 -369 0 -10 35 -13 140 -13 77 0 140 3 140 7 0 9 -141 728 -143 730 -1 1 -33 -159 -70 -355z"/>
<path d="M2697 1862 c-37 -196 -67 -363 -67 -369 0 -10 35 -13 140 -13 77 0 140 3 140 7 0 9 -141 728 -143 730 -1 1 -33 -159 -70 -355z"/>
</g>
</svg>