<svg width="16" height="17" viewBox="0 0 16 17" fill="none" xmlns="http://www.w3.org/2000/svg">
    <path  d="M7.95495 3.18718L5.83363 5.3085L6.89429 6.36916L9.01561 4.24784C9.89066 3.3728 11.3225 3.3728 12.1976 4.24784C13.0726 5.12289 13.0726 6.55478 12.1976 7.42983L10.0763 9.55115L11.1369 10.6118L13.2583 8.49049C14.722 7.02677 14.722 4.6509 13.2583 3.18718C11.7945 1.72347 9.41866 1.72347 7.95495 3.18718ZM9.01561 10.6118L6.89429 12.7331C6.01925 13.6082 4.58736 13.6082 3.71231 12.7331C2.83727 11.8581 2.83727 10.4262 3.71231 9.55115L5.83363 7.42983L4.77297 6.36916L2.65165 8.49049C1.18794 9.9542 1.18794 12.3301 2.65165 13.7938C4.11536 15.2575 6.49124 15.2575 7.95495 13.7938L10.0763 11.6725L9.01561 10.6118ZM5.3033 10.0815L9.54594 5.83883L10.6066 6.8995L6.36396 11.1421L5.3033 10.0815Z" fill="#4CA48A"/>
</svg>