<svg width="216" height="48" viewBox="0 0 216 48" fill="none" xmlns="http://www.w3.org/2000/svg">
<path d="M76.6651 22.7675C76.928 22.0019 77.2434 21.3858 77.5413 20.8842L80.2138 16H84.4986L78.8644 25.0556L84.6826 34.9912H80.319L77.515 29.7374C77.2259 29.183 76.9367 28.4877 76.7001 27.6429C76.3847 28.5933 76.0955 29.2886 75.8239 29.7638L73.02 35H68.6826L74.5271 25.0644L68.8403 16.0088H73.1514L75.8502 20.9722C76.0605 21.333 76.3759 21.8962 76.6651 22.7675Z" fill="#6D6F71"/>
<rect x="87.6826" y="16" width="4" height="19" fill="#6D6F71"/>
<path fill-rule="evenodd" clip-rule="evenodd" d="M103.696 35C106.318 35 108.837 33.9576 110.773 32.0671C112.658 30.2297 113.683 27.7208 113.683 25C113.683 22.3057 112.684 19.8233 110.773 17.9329C108.889 16.0689 106.318 15 103.696 15C101.073 15 98.4764 16.0689 96.5919 17.9329C94.6813 19.8233 93.6826 22.2792 93.6826 25C93.6826 28.0389 94.9679 30.7862 97.33 32.7032C99.1364 34.1696 101.386 35 103.696 35ZM103.696 18.6042C107.135 18.6042 109.566 21.4841 109.566 25C109.566 28.5424 107.178 31.3693 103.696 31.3693C100.1 31.3693 97.799 28.5512 97.799 25C97.799 21.4841 100.213 18.6042 103.696 18.6042Z" fill="#6D6F71"/>
<path d="M166.144 35H162.204V19.4601H157.683V16H170.683V19.4601H166.144V35Z" fill="#6D6F71"/>
<rect x="175.683" y="16" width="4" height="19" fill="#6D6F71"/>
<path d="M193.98 18.2819C189.73 18.2819 187.043 20.9197 187.043 24.9956C187.043 28.9391 189.454 31.5152 193.566 31.5152C195.838 31.5152 197.816 30.8006 199.509 29.3008L199.482 33.4826C197.678 34.4883 195.71 35 193.511 35C187.099 35 182.683 30.7124 182.683 24.9868C182.683 19.367 186.988 15 193.594 15C196.087 15 198.065 15.5911 199.675 16.3322L199.537 20.408C198.056 19.1641 196.335 18.2819 193.98 18.2819Z" fill="#6D6F71"/>
<path d="M204.707 29.5214C205.324 30.933 206.74 31.7799 208.369 31.7799C210.42 31.7799 211.589 30.7653 211.589 29.2744C211.589 27.5981 209.951 27.2541 207.228 25.8955C204.312 24.431 202.619 23.0459 202.619 20.3816C202.619 17.3732 205.314 15 209.62 15C212.003 15 213.705 15.7764 215.029 17.5055L212.527 19.7993C211.92 18.6789 210.917 18.1495 209.555 18.1495C207.835 18.1495 206.749 19.0847 206.749 20.3286C206.749 22.0843 208.525 22.5165 210.742 23.4693C214.073 24.9338 215.683 26.7424 215.683 29.142C215.683 32.5739 213.097 35 208.654 35C205.572 35 203.373 33.9325 202.324 32.071L204.707 29.5214Z" fill="#6D6F71"/>
<path d="M115.683 34.973H119.604L121.395 24.514L127.142 35L133.015 24.514L134.761 34.973H138.683L134.537 15.09L127.178 26.9712L120.034 15L115.683 34.973Z" fill="#6D6F71"/>
<path d="M62.872 34.9819L66.6826 35L57.1826 15L47.6826 35L51.4932 34.9819L53.3897 30.7942H57.756L58.7792 27.491H54.8892L57.2267 22.3375L62.872 34.9819Z" fill="#6D6F71"/>
<path d="M154.87 34.9819L158.683 35L149.178 15L139.683 35L143.495 34.9819L145.392 30.7942H149.752L150.776 27.491H146.893L149.222 22.3375L154.87 34.9819Z" fill="#6D6F71"/>
<path d="M13.6655 32.245L9.68262 30L9.69971 34.7633L13.6826 37L13.6655 32.245Z" fill="#8FAC5A"/>
<path d="M18.6826 29.4196L14.3455 27L9.68262 29.5804L14.0197 32L18.6826 29.4196Z" fill="#D4E16C"/>
<path d="M13.6826 31.679L13.6985 37L17.6826 34.3302L17.6667 29L13.6826 31.679Z" fill="#657E40"/>
<path d="M4.67405 25.245L0.682617 23L0.699748 27.7633L4.68262 30L4.67405 25.245Z" fill="#8FAC5A"/>
<path d="M9.68262 21.4107L5.341 19L0.682617 21.5804L5.02423 24L9.68262 21.4107Z" fill="#D4E16C"/>
<path d="M4.68262 24.679L4.69059 30L8.68262 27.3302L8.66668 22L4.68262 24.679Z" fill="#657E40"/>
<path d="M25.6655 10.245L21.6826 8L21.6997 12.7633L25.6826 15L25.6655 10.245Z" fill="#8FAC5A"/>
<path d="M30.6826 7.42424L26.341 5L21.6826 7.58467L26.0242 10L30.6826 7.42424Z" fill="#D4E16C"/>
<path d="M26.6826 9.67903L26.6985 15L30.6826 12.3302L30.6588 7L26.6826 9.67903Z" fill="#657E40"/>
<path d="M14.657 5.24232L10.6826 3L10.6912 7.76596L14.6826 10L14.657 5.24232Z" fill="#8FAC5A"/>
<path d="M19.6826 2.41503L15.341 0L10.6826 2.57603L15.0149 5L19.6826 2.41503Z" fill="#D4E16C"/>
<path d="M14.6826 4.67593L14.7065 10L18.6826 7.32407L18.6746 2L14.6826 4.67593Z" fill="#657E40"/>
<path d="M13.6655 16.2506L9.68262 14L9.69971 18.766L13.6826 21L13.6655 16.2506Z" fill="#8FAC5A"/>
<path d="M18.6826 14.4196L14.3455 12L9.68262 14.5714L14.0197 17L18.6826 14.4196Z" fill="#D4E16C"/>
<path d="M13.6826 16.679L13.6985 22L17.6826 19.3302L17.6667 14L13.6826 16.679Z" fill="#657E40"/>
<path d="M10.6912 45.7633L14.6826 48L14.6655 43.245L10.6826 41L10.6912 45.7633Z" fill="#8FAC5A"/>
<path d="M19.6826 40.4107L15.341 38L10.6826 40.5804L15.0242 43L19.6826 40.4107Z" fill="#D4E16C"/>
<path d="M14.6826 42.6852L14.6986 48L18.6826 45.3333L18.6667 40L14.6826 42.6852Z" fill="#657E40"/>
<path d="M19.6655 28.2423L15.6826 26L15.6912 30.7577L19.6826 33L19.6655 28.2423Z" fill="#8FAC5A"/>
<path d="M24.6826 25.4196L20.3362 23L15.6826 25.5804L20.0197 28L24.6826 25.4196Z" fill="#D4E16C"/>
<path d="M19.6826 27.6759L19.6986 33L23.6826 30.3241L23.6746 25L19.6826 27.6759Z" fill="#657E40"/>
<path d="M32.6741 13.2423L28.6826 11L28.6997 15.766L32.6826 18L32.6741 13.2423Z" fill="#8FAC5A"/>
<path d="M36.6826 10.415L32.341 8L27.6826 10.576L32.0242 13L36.6826 10.415Z" fill="#D4E16C"/>
<path d="M32.6826 13.6759L32.6906 19L36.6826 16.3241L36.6667 11L32.6826 13.6759Z" fill="#657E40"/>
<path d="M25.6741 17.2423L21.6826 15L21.6997 19.7577L25.6826 22L25.6741 17.2423Z" fill="#8FAC5A"/>
<path d="M30.6826 14.4196L26.3503 12L21.6826 14.5804L26.0242 17L30.6826 14.4196Z" fill="#D4E16C"/>
<path d="M26.6826 16.6759L26.6906 22L30.6826 19.3241L30.6667 14L26.6826 16.6759Z" fill="#657E40"/>
<path d="M19.6655 20.234L15.6826 18L15.6912 22.7494L19.6826 25L19.6655 20.234Z" fill="#8FAC5A"/>
<path d="M24.6826 17.415L20.3362 15L15.6826 17.585L20.0197 20L24.6826 17.415Z" fill="#D4E16C"/>
<path d="M19.6826 19.6728L19.6986 25L23.6826 22.3272L23.6746 17L19.6826 19.6728Z" fill="#657E40"/>
<path d="M37.6656 32.2423L33.6826 30L33.6997 34.7577L37.6826 37L37.6656 32.2423Z" fill="#8FAC5A"/>
<path d="M42.6826 29.4196L38.3455 27L33.6826 29.5804L38.029 32L42.6826 29.4196Z" fill="#D4E16C"/>
<path d="M38.6826 31.6759L38.6986 37L42.6826 34.3148L42.6667 29L38.6826 31.6759Z" fill="#657E40"/>
<path d="M32.6741 35.2423L28.6826 33L28.6997 37.7577L32.6826 40L32.6741 35.2423Z" fill="#8FAC5A"/>
<path d="M36.6826 32.4196L32.341 30L27.6826 32.5804L32.0242 35L36.6826 32.4196Z" fill="#D4E16C"/>
<path d="M32.6826 35.6698L32.6906 41L36.6826 38.321L36.6667 33L32.6826 35.6698Z" fill="#657E40"/>
<path d="M25.6655 38.5596L21.6826 36L21.6997 41.4309L25.6826 44L25.6655 38.5596Z" fill="#8FAC5A"/>
<path d="M31.6826 36.4196L27.3503 34L22.6826 36.5804L27.0242 39L31.6826 36.4196Z" fill="#D4E16C"/>
<path d="M26.6826 38.6728L26.6985 44L30.6826 41.3179L30.6588 36L26.6826 38.6728Z" fill="#657E40"/>
<path d="M37.6656 25.2423L33.6826 23L33.6997 27.766L37.6826 30L37.6656 25.2423Z" fill="#8FAC5A"/>
<path d="M42.6826 21.415L38.3455 19L33.6826 21.576L38.029 24L42.6826 21.415Z" fill="#D4E16C"/>
<path d="M38.6826 24.6759L38.6986 30L42.6826 27.3241L42.6667 22L38.6826 24.6759Z" fill="#657E40"/>
<path d="M32.6741 28.245L28.6826 26L28.6997 30.7633L32.6826 33L32.6741 28.245Z" fill="#8FAC5A"/>
<path d="M36.6826 25.4196L32.341 23L27.6826 25.5804L32.0242 28L36.6826 25.4196Z" fill="#D4E16C"/>
<path d="M32.6826 28.679L32.6906 34L36.6826 31.3302L36.6667 26L32.6826 28.679Z" fill="#657E40"/>
<path d="M25.6655 31.234L21.6826 29L21.6997 33.7494L25.6826 36L25.6655 31.234Z" fill="#8FAC5A"/>
<path d="M31.6826 29.424L27.3503 27L22.6826 29.585L27.0242 32L31.6826 29.424Z" fill="#D4E16C"/>
<path d="M26.6826 31.6667L26.6985 37L30.6826 34.3241L30.6588 29L26.6826 31.6667Z" fill="#657E40"/>
<path d="M37.6656 17.2423L33.6826 15L33.6997 19.7577L37.6826 22L37.6656 17.2423Z" fill="#8FAC5A"/>
<path d="M42.6826 14.4196L38.3455 12L33.6826 14.5804L38.029 17L42.6826 14.4196Z" fill="#D4E16C"/>
<path d="M38.6826 16.6759L38.6986 22L42.6826 19.3241L42.6667 14L38.6826 16.6759Z" fill="#657E40"/>
<path d="M32.6741 20.2367L28.6826 18L28.6997 22.755L32.6826 25L32.6741 20.2367Z" fill="#8FAC5A"/>
<path d="M36.6826 17.4196L32.341 15L27.6826 17.5804L32.0242 20L36.6826 17.4196Z" fill="#D4E16C"/>
<path d="M32.6826 20.6759L32.6906 26L36.6826 23.3333L36.6667 18L32.6826 20.6759Z" fill="#657E40"/>
<path d="M25.6655 24.2423L21.6826 22L21.6997 26.766L25.6826 29L25.6655 24.2423Z" fill="#8FAC5A"/>
<path d="M31.6826 21.4196L27.3503 19L22.6826 21.5804L27.0242 24L31.6826 21.4196Z" fill="#D4E16C"/>
<path d="M26.6826 24.6759L26.6985 30L30.6826 27.3241L30.6588 22L26.6826 24.6759Z" fill="#657E40"/>
<path d="M115.683 34.973H119.597L121.388 24.514L127.138 35L133.013 24.514L134.769 34.973H138.683L134.536 15.09L127.183 26.9712L120.035 15L115.683 34.973Z" fill="#6D6F71"/>
<path d="M154.87 34.9819L158.683 35L149.187 15L139.683 35L143.495 34.9819L145.392 30.7942H149.752L150.784 27.4819H146.893L149.222 22.3375L154.87 34.9819Z" fill="#6D6F71"/>
</svg>
